# xmcd
#
# Track frame offsets: 
#        150
#        20029
#        31876
#        49341
#        72093
#        86916
#        103400
#        117942
#        134190
#        155191
#        167996
#        181524
#        202247
#        219728
#        234212
#        258615
#        271822
#        290265
#
# Disc length: 4145 seconds
#
# Revision: 0
# Processed by: cddbd v1.5.2PL0 Copyright (c) Steve Scherf et al.
# Submitted via: ExactAudioCopyFreeDBPlugin 1.0
#
DISCID=1b102f12
DTITLE=Jim Kweskin - Jug Band Extravaganza
DYEAR=2010
DGENRE=Country
TTITLE0=This Will Bring You Back
TTITLE1=My Old Man
TTITLE2=Gee Baby Ain't I Good To You
TTITLE3=Wild Ox Moan
TTITLE4=Jug Band Waltz
TTITLE5=Eight More Miles To Louisville
TTITLE6=San Francisco Bay Blues
TTITLE7=Sofie's Back In Town
TTITLE8=Stealin Stealin
TTITLE9=Downtown Blues
TTITLE10=Papa's on the Housetop
TTITLE11=Blues My Naughty Sweetie Gives to Me
TTITLE12=Morning Blues
TTITLE13=New Minglewood Blues
TTITLE14=Richland Woman
TTITLE15=The Sheik of Araby
TTITLE16=Sweet Sue
TTITLE17=Jug Band Music
EXTD=
EXTT0=
EXTT1=
EXTT2=
EXTT3=
EXTT4=
EXTT5=
EXTT6=
EXTT7=
EXTT8=
EXTT9=
EXTT10=
EXTT11=
EXTT12=
EXTT13=
EXTT14=
EXTT15=
EXTT16=
EXTT17=
PLAYORDER=
